<?xml version="1.0" standalone="no"?>
<!DOCTYPE svg PUBLIC "-//W3C//DTD SVG 20010904//EN"
 "http://www.w3.org/TR/2001/REC-SVG-20010904/DTD/svg10.dtd">
<svg version="1.0" xmlns="http://www.w3.org/2000/svg"
 width="200.000000pt" height="200.000000pt" viewBox="0 0 200.000000 200.000000"
 preserveAspectRatio="xMidYMid meet">

<g transform="translate(0.000000,200.000000) scale(0.100000,-0.100000)"
fill="#000000" stroke="none">
<path d="M51 1986 c-52 -29 -50 6 -51 -984 0 -1003 -2 -964 55 -990 19 -9 254
-12 946 -12 999 0 961 -2 987 55 17 38 17 1852 0 1890 -26 57 13 55 -990 55
-747 -1 -928 -3 -947 -14z m796 -631 c476 -641 708 -956 711 -965 2 -6 -34
-10 -90 -10 l-94 0 -94 128 c-52 70 -178 240 -279 377 -314 426 -523 709 -534
723 -8 10 9 12 89 10 l99 -3 192 -260z m683 260 c0 -4 -355 -493 -369 -508 -5
-5 -29 19 -54 53 l-45 61 145 200 145 199 89 0 c49 0 89 -2 89 -5z m-599 -802
c-1 -4 -69 -103 -153 -220 l-153 -212 -97 -1 -98 0 127 173 c69 94 162 221
206 280 l79 108 45 -60 c24 -33 44 -64 44 -68z"/>
</g>
</svg>
